<svg xmlns="http://www.w3.org/2000/svg" width="32" height="32" viewBox="0 0 32 32"><defs><clipPath id="o9yma"><path fill="#fff" d="M0 32V0h32v32zm3.09-16c0 7.13 5.78 12.91 12.91 12.91S28.909 23.13 28.909 16s-5.78-12.91-12.91-12.91C8.87 3.09 3.09 8.87 3.09 16z"/></clipPath></defs><g><g><g><path fill="#e20816" d="M16 3.09c7.13 0 12.909 5.78 12.909 12.91s-5.78 12.91-12.91 12.91C8.87 28.91 3.09 23.13 3.09 16S8.87 3.09 16 3.09z"/><path fill="none" stroke="#f2f3f4" stroke-miterlimit="50" stroke-width="6" d="M16 3.09c7.13 0 12.909 5.78 12.909 12.91s-5.78 12.91-12.91 12.91C8.87 28.91 3.09 23.13 3.09 16S8.87 3.09 16 3.09z" clip-path="url(&quot;#o9yma&quot;)"/></g><g><path fill="#fff" d="M11 15h4v-4h2v4h4v2h-4v4h-2v-4h-4z"/></g></g></g></svg>