<svg xmlns="http://www.w3.org/2000/svg" width="28" height="28" viewBox="0 0 28 28"><g><g><path fill="#e20816" d="M.688 9.518l1.068-1.066c-.021.345-.033.692-.033 1.041v.025zm17.794 16.726c.369 0 .736-.014 1.102-.037l-1.102 1.104zm4.332-3.276l-1.294 1.298a15.25 15.25 0 0 1-3.038.307v-.93c1.493 0 2.95-.231 4.332-.675zm-4.332-1.922a11.532 11.532 0 0 0 8.83-4.12V18.3a12.445 12.445 0 0 1-8.83 3.676zm0-1.67v-.928c4.44-.003 8.133-3.254 8.83-7.5v2.97c-1.626 3.232-4.973 5.456-8.83 5.459zm8.83-14.307v2.97A8.979 8.979 0 0 0 20.108.688h2.854a9.952 9.952 0 0 1 4.35 4.38zm-8.806 2.759a1.668 1.668 0 1 1 0 3.336l-.024-.001V9.518h-1.643v-.022c0-.922.746-1.668 1.667-1.668zm-.032-3.023a4.693 4.693 0 0 1 4.687 4.688 4.692 4.692 0 0 1-4.68 4.686v-.928a3.763 3.763 0 0 0 3.752-3.758 3.763 3.763 0 0 0-3.759-3.76 3.763 3.763 0 0 0-3.759 3.76v.025h-.928v-.025a4.693 4.693 0 0 1 4.687-4.688zm0-2.598c4.017 0 7.286 3.269 7.286 7.286 0 4.014-3.265 7.28-7.278 7.284v-.928a6.364 6.364 0 0 0 6.349-6.356 6.364 6.364 0 0 0-6.357-6.357 6.364 6.364 0 0 0-6.357 6.357v.025h-.928v-.025c0-4.017 3.268-7.286 7.285-7.286zm7.47-1.52h1.368V2.06A11.638 11.638 0 0 0 25.945.688zM9.52 9.494v.025H8.59v-.025c0-3.835 2.196-7.168 5.397-8.805h2.854c-4.161.77-7.322 4.425-7.322 8.805zM11.004.688A11.531 11.531 0 0 0 6.92 9.493v.025h-.929v-.025c0-3.433 1.394-6.546 3.644-8.805zM4.323 9.493v.025h-.929v-.025c0-1.007.098-2 .29-2.965l1.285-1.283a14.192 14.192 0 0 0-.646 4.248z"/></g></g></svg>