<svg xmlns="http://www.w3.org/2000/svg" width="18" height="18" viewBox="0 0 18 18"><g><g><path fill="#e20816" d="M9 .187a8.812 8.812 0 1 1 0 17.625A8.812 8.812 0 0 1 9 .187zM9 9.26c1.183 0 1.609-1.185 1.72-2.159.137-1.2-.43-2.103-1.72-2.103S7.141 5.9 7.28 7.1c.11.974.536 2.16 1.72 2.16zm3.2 2.823a8.1 8.1 0 0 0-.123-1.13c-.08-.45-.181-1.11-.575-1.404-.227-.17-.521-.227-.782-.329a3.152 3.152 0 0 1-.346-.154c-.36.394-.829.6-1.375.6a1.8 1.8 0 0 1-1.373-.6c-.107.056-.22.106-.347.154-.26.102-.555.16-.782.329-.393.294-.495.955-.575 1.405-.066.372-.11.751-.123 1.129-.01.293.134.334.38.422.305.111.622.193.94.26.615.13 1.25.23 1.88.235.632-.004 1.266-.105 1.88-.235.319-.067.635-.149.942-.26.245-.088.389-.129.38-.422z"/></g></g></svg>