<svg xmlns="http://www.w3.org/2000/svg" width="27" height="27" viewBox="0 0 27 27"><defs><clipPath id="rxzua"><path fill="#fff" d="M13.5 0C20.954 0 27 6.044 27 13.5S20.955 27 13.5 27C6.043 27 0 20.956 0 13.5S6.044 0 13.5 0z"/></clipPath></defs><g><g><path fill="none" stroke="#575b61" stroke-miterlimit="50" stroke-width="2" d="M13.5 0C20.954 0 27 6.044 27 13.5S20.955 27 13.5 27C6.043 27 0 20.956 0 13.5S6.044 0 13.5 0z" clip-path="url(&quot;#rxzua&quot;)"/></g><g><path fill="#575b61" d="M19.39 19.43l-1.88-.69-.142.067-.684 1.893a.452.452 0 0 1-.837.036l-1.336-2.882a5.897 5.897 0 0 0 3.85-2.489l1.595 3.443c.171.368-.188.761-.566.622zm-.902-7.412c0 2.766-2.238 5.018-4.989 5.018-2.75 0-4.987-2.252-4.987-5.018C8.512 9.25 10.749 7 13.499 7s4.989 2.25 4.989 5.018zm-2.813-1.147l-1.222-.179-.547-1.114a.452.452 0 0 0-.813 0l-.546 1.114-1.223.179a.457.457 0 0 0-.251.778l.884.867-.209 1.225a.455.455 0 0 0 .658.481l1.093-.578 1.094.578a.455.455 0 0 0 .658-.48l-.21-1.226.886-.867a.457.457 0 0 0-.252-.778zm-3.187 6.983l-1.336 2.882a.453.453 0 0 1-.837-.037l-.684-1.892-.141-.066-1.882.689c-.374.139-.737-.253-.565-.622l1.596-3.443a5.897 5.897 0 0 0 3.85 2.49z"/></g></g></svg>