<svg xmlns="http://www.w3.org/2000/svg" width="27" height="27" viewBox="0 0 27 27"><defs><clipPath id="u3v4a"><path fill="#fff" d="M13.5 0C20.954 0 27 6.044 27 13.5S20.955 27 13.5 27C6.043 27 0 20.956 0 13.5S6.044 0 13.5 0z"/></clipPath></defs><g><g><path fill="none" stroke="#575b61" stroke-miterlimit="50" stroke-width="2" d="M13.5 0C20.954 0 27 6.044 27 13.5S20.955 27 13.5 27C6.043 27 0 20.956 0 13.5S6.044 0 13.5 0z" clip-path="url(&quot;#u3v4a&quot;)"/></g><g><path fill="#575b61" d="M10.149 9.284l4.282-2.211a.662.662 0 0 1 .903.317l.254.534-4.784 1.36zm7.573-.803l.21.803H12.34l3.432-.976 1.124-.32a.652.652 0 0 1 .178-.025c.296 0 .568.205.65.518zm1.585 1.996v1.916h-4a1.118 1.118 0 0 0-.82.36c-.2.216-.324.51-.324.832v1.561c0 .659.514 1.194 1.146 1.194h3.998v1.958c0 .387-.302.702-.674.702h-9.96C8.302 19 8 18.685 8 18.298v-7.82a.72.72 0 0 1 .148-.438.663.663 0 0 1 .527-.265h9.96c.372 0 .674.315.672.702zM20 13.582v1.563c0 .205-.085.39-.22.518a.655.655 0 0 1-.454.184h-4.017c-.372 0-.674-.315-.674-.702v-1.563c0-.387.302-.702.674-.702h4.017a.663.663 0 0 1 .454.184c.135.128.22.314.22.518zm-3.284.921v-.233a.344.344 0 0 0-.337-.35h-.224a.35.35 0 0 0-.337.351v.232c0 .194.15.351.337.351h.224a.344.344 0 0 0 .337-.35z"/></g></g></svg>