<svg xmlns="http://www.w3.org/2000/svg" width="27" height="27" viewBox="0 0 27 27"><defs><clipPath id="ctgqa"><path fill="#fff" d="M13.5 0C20.956 0 27 6.044 27 13.5S20.956 27 13.5 27 0 20.956 0 13.5 6.043 0 13.5 0z"/></clipPath></defs><g><g><path fill="none" stroke="#575b61" stroke-miterlimit="50" stroke-width="2" d="M13.5 0C20.956 0 27 6.044 27 13.5S20.956 27 13.5 27 0 20.956 0 13.5 6.043 0 13.5 0z" clip-path="url(&quot;#ctgqa&quot;)"/></g><g><path fill="#575b61" d="M11.12 9.934c0-1.62.35-2.934 2.38-2.934 2.029 0 2.378 1.314 2.378 2.934S14.813 12.87 13.5 12.87c-1.313 0-2.378-1.314-2.378-2.935zM9.008 17.35c-.002-.028-.001-.099 0 0m8.986.077c0-.187 0-.027 0 0m0 0v.22S17.33 19 13.499 19c-3.831 0-4.492-1.354-4.492-1.354l-.001-.297c.001.026.003.014.007-.21.05-2.75.436-3.541 3.184-4.045 0 0 .39.506 1.302.506s1.303-.506 1.303-.506c2.778.509 3.142 1.313 3.186 4.137.002.18.004.211.005.195z"/></g></g></svg>