<svg xmlns="http://www.w3.org/2000/svg" width="27" height="27" viewBox="0 0 27 27"><defs><clipPath id="p6vea"><path fill="#fff" d="M13.5 0C20.954 0 27 6.044 27 13.5 27 20.954 20.955 27 13.5 27 6.043 27 0 20.955 0 13.5 0 6.043 6.044 0 13.5 0z"/></clipPath></defs><g><g><path fill="none" stroke="#575b61" stroke-miterlimit="50" stroke-width="2" d="M13.5 0C20.954 0 27 6.044 27 13.5 27 20.954 20.955 27 13.5 27 6.043 27 0 20.955 0 13.5 0 6.043 6.044 0 13.5 0z" clip-path="url(&quot;#p6vea&quot;)"/></g><g><path fill="#575b61" d="M15.65 19.481v.011c0 .943-.739 1.708-1.65 1.708-.913 0-1.652-.765-1.652-1.708v-.01zm3.662-1.334a.747.747 0 0 1-.663.413h-9.3a.747.747 0 0 1-.663-.413.8.8 0 0 1 .043-.8l1.486-2.257v-2.816c0-1.9 1.308-3.482 3.042-3.84v-.866c0-.424.332-.768.742-.768s.742.344.742.768v.867c1.735.356 3.043 1.94 3.043 3.839v2.816l1.485 2.257a.8.8 0 0 1 .043.8z"/></g></g></svg>