<svg xmlns="http://www.w3.org/2000/svg" width="93" height="91" viewBox="0 0 93 91"><defs><clipPath id="f3zla"><path fill="#fff" d="M46.5-.094c25.18 0 45.594 20.413 45.594 45.594 0 25.18-20.413 45.593-45.594 45.593C21.32 91.093.906 70.68.906 45.5.906 20.319 21.32-.094 46.5-.094z"/></clipPath></defs><g><g opacity=".36"><path fill="#fff" d="M46.5-.094c25.18 0 45.594 20.413 45.594 45.594 0 25.18-20.413 45.593-45.594 45.593C21.32 91.093.906 70.68.906 45.5.906 20.319 21.32-.094 46.5-.094z"/><path fill="none" stroke="#e20816" stroke-miterlimit="50" stroke-width="2" d="M46.5-.094c25.18 0 45.594 20.413 45.594 45.594 0 25.18-20.413 45.593-45.594 45.593C21.32 91.093.906 70.68.906 45.5.906 20.319 21.32-.094 46.5-.094z" clip-path="url(&quot;#f3zla&quot;)"/></g><g><path fill="#e20816" d="M46.5 17C62.24 17 75 29.76 75 45.5S62.24 74 46.5 74 18 61.24 18 45.5 30.76 17 46.5 17z"/></g><g><path fill="#fff" d="M51.845 45.037l-7.343-5.265a1.184 1.184 0 0 0-1.874.962v10.53c0 .965 1.09 1.525 1.874.963l7.343-5.265a1.184 1.184 0 0 0 0-1.925z"/></g></g></svg>