<svg xmlns="http://www.w3.org/2000/svg" width="20" height="18" viewBox="0 0 20 18"><g><g><path fill="#fff" d="M16.887 14.679c-.785 1.046-1.861 1.882-3.199 2.485a8.434 8.434 0 0 1-3.667.827 9.2 9.2 0 0 1-2.827-.452c-1.953-.643-3.534-1.881-4.705-3.681A8.957 8.957 0 0 1 1.114 9.13H.326c-.296 0-.444-.363-.235-.574l1.43-1.447a.33.33 0 0 1 .47 0l1.43 1.447c.209.211.06.573-.236.573H2.4v.102a7.668 7.668 0 0 0 1.167 3.918c1.005 1.544 2.358 2.605 4.021 3.153 1.894.612 3.868.5 5.557-.315.004-.003.01-.005.015-.007 1.07-.481 1.937-1.128 2.58-1.926a5.96 5.96 0 0 0 .127-.162.637.637 0 0 1 .899-.124.654.654 0 0 1 .122.91zm3.021-5.108l-1.43 1.447a.33.33 0 0 1-.47 0l-1.43-1.447c-.209-.212-.06-.574.236-.574h.788a7.233 7.233 0 0 0-.014-.459 7.763 7.763 0 0 0-1.02-3.416A7.727 7.727 0 0 0 14.2 2.587a7.548 7.548 0 0 0-3.279-1.224 7.55 7.55 0 0 0-3.814.52 7.645 7.645 0 0 0-3.023 2.283.636.636 0 0 1-.902.096.654.654 0 0 1-.095-.913A8.933 8.933 0 0 1 6.62.682a8.825 8.825 0 0 1 4.456-.609 8.83 8.83 0 0 1 3.835 1.432 9.028 9.028 0 0 1 2.764 2.962 9.08 9.08 0 0 1 1.21 4.53h.788c.296 0 .444.362.235.574z"/></g></g></svg>