<svg xmlns="http://www.w3.org/2000/svg" width="106" height="25" viewBox="0 0 106 25"><g><g opacity=".6"><g opacity=".6"><path fill="#fff" d="M25.13 12.498c0 6.901-5.625 12.499-12.564 12.499C5.626 24.997 0 19.399 0 12.497 0 5.595 5.626-.003 12.566-.003S25.13 5.594 25.13 12.498zm-8.622-.035c.303-.43.629-.845.934-1.274.285-.4.577-.799.727-1.28.095-.305.01-.44-.298-.495-.052-.007-.107-.007-.161-.007l-1.828-.004c-.226-.003-.35.097-.43.299-.107.274-.218.548-.346.812-.29.601-.615 1.18-1.07 1.671-.1.107-.211.244-.379.188-.21-.078-.272-.43-.268-.547l-.001-2.145c-.041-.304-.108-.441-.408-.5h-1.898c-.254 0-.38.1-.516.26-.078.094-.102.153.059.184.315.06.493.268.54.59.075.511.07 1.027.026 1.543-.013.149-.038.3-.097.44-.091.22-.24.265-.434.13-.177-.122-.3-.296-.422-.47a10.419 10.419 0 0 1-1.115-2.1c-.086-.214-.233-.345-.457-.347a48.524 48.524 0 0 0-1.645 0c-.33.008-.429.17-.294.473.597 1.35 1.262 2.662 2.13 3.857.445.613.957 1.155 1.618 1.54.75.435 1.555.567 2.405.525.398-.019.517-.123.535-.526.013-.277.043-.55.177-.797.132-.244.33-.29.56-.138.114.075.21.17.302.273.224.248.44.505.672.745.291.303.637.48 1.07.443l1.68.001c.271-.02.412-.355.256-.663a3.272 3.272 0 0 0-.404-.592c-.343-.418-.748-.774-1.13-1.154-.345-.342-.367-.542-.09-.935z"/></g><g opacity=".6"><path fill="#fff" d="M65.713 12.495c0 6.892-5.637 12.497-12.563 12.497-6.927 0-12.563-5.605-12.563-12.497 0-6.89 5.636-12.497 12.563-12.497 6.926 0 12.563 5.607 12.563 12.497zm-9.765-1.732h-1.906V9.537c0-.461.311-.568.53-.568h1.345V6.944l-1.852-.007c-2.056 0-2.524 1.51-2.524 2.476v1.349h-1.19v2.086h1.19v5.902h2.5v-5.902h1.689z"/></g><g opacity=".6"><path fill="#fff" d="M91.475 12.488a1.97 1.97 0 0 1 3.56-1.142c.233.323.373.715.373 1.142a1.963 1.963 0 0 1-1.967 1.953 1.96 1.96 0 0 1-1.966-1.953zm4.372-2.387l-.007-1.882 1.647-.006.247-.002v1.885zm10.148 2.394c0 6.892-5.635 12.497-12.562 12.497S80.87 19.387 80.87 12.495c0-6.89 5.636-12.497 12.563-12.497 6.927 0 12.562 5.607 12.562 12.497zM99.026 9.08a2.156 2.156 0 0 0-2.159-2.147h-6.852c-1.19 0-2.158.964-2.158 2.147v6.817c0 1.185.967 2.148 2.158 2.148h6.853c1.19 0 2.158-.963 2.158-2.148zm-2.756 2.267h1.667v4.55c0 .587-.48 1.064-1.07 1.064h-6.852c-.591 0-1.07-.477-1.07-1.064v-4.55h1.666a3.02 3.02 0 0 0-.224 1.142 3.05 3.05 0 0 0 3.055 3.038 3.05 3.05 0 0 0 3.054-3.038c0-.404-.082-.789-.226-1.142z"/></g></g></g></svg>