<svg xmlns="http://www.w3.org/2000/svg" width="41" height="41" viewBox="0 0 41 41">
  <defs>
    <style>
      .cls-1 {
        fill: #e20816;
        fill-rule: evenodd;
      }
    </style>
  </defs>
  <path id="Forma_1" data-name="Forma 1" class="cls-1" d="M2218.5,596a20.5,20.5,0,1,0,20.5,20.5A20.525,20.525,0,0,0,2218.5,596Zm0,39.633a19.133,19.133,0,1,1,19.13-19.133A19.152,19.152,0,0,1,2218.5,635.633Zm0.68-21.852v-6.93a0.68,0.68,0,1,0-1.36,0v6.93a2.735,2.735,0,0,0-1.96,1.953h-4.88a0.684,0.684,0,0,0,0,1.367h4.88A2.728,2.728,0,1,0,2219.18,613.781Zm-0.68,4a1.367,1.367,0,1,1,1.37-1.367A1.373,1.373,0,0,1,2218.5,617.784Zm0-15.033a0.679,0.679,0,0,0,.68-0.684v-0.683a0.68,0.68,0,1,0-1.36,0v0.683A0.679,0.679,0,0,0,2218.5,602.751Zm0,27.333a0.678,0.678,0,0,0-.68.683v0.684a0.68,0.68,0,1,0,1.36,0v-0.684A0.678,0.678,0,0,0,2218.5,630.084Zm15.03-14.35h-0.68a0.684,0.684,0,0,0,0,1.367h0.68A0.684,0.684,0,1,0,2233.53,615.734Zm-29.38,0h-0.68a0.684,0.684,0,1,0,0,1.367h0.68A0.684,0.684,0,0,0,2204.15,615.734Zm24.5-10.43-0.49.483a0.683,0.683,0,0,0,.49,1.166,0.678,0.678,0,0,0,.48-0.2l0.48-.483A0.681,0.681,0,0,0,2228.65,605.3Zm-20.78,20.777-0.48.483a0.677,0.677,0,0,0,0,.966,0.662,0.662,0,0,0,.48.2,0.679,0.679,0,0,0,.48-0.2l0.49-.483a0.7,0.7,0,0,0,0-.966A0.687,0.687,0,0,0,2207.87,626.081Zm21.26,0a0.687,0.687,0,0,0-.97,0,0.7,0.7,0,0,0,0,.966l0.49,0.483a0.662,0.662,0,0,0,.48.2,0.684,0.684,0,0,0,.48-1.167ZM2208.35,605.3a0.681,0.681,0,0,0-.96.966l0.48,0.483a0.678,0.678,0,0,0,.48.2,0.683,0.683,0,0,0,.49-1.166Z" transform="translate(-2198 -596)"/>
</svg>
